<?xml version="1.0" encoding="UTF-8"?>
<!DOCTYPE svg PUBLIC "-//W3C//DTD SVG 1.1//EN" "http://www.w3.org/Graphics/SVG/1.1/DTD/svg11.dtd">
<svg xmlns="http://www.w3.org/2000/svg" style="background: transparent; background-color: transparent; color-scheme: light dark;" xmlns:xlink="http://www.w3.org/1999/xlink" version="1.1" width="445px" height="444px" viewBox="0 0 445 444"><defs/><g><g data-cell-id="0"><g data-cell-id="1"><g data-cell-id="eA2ck0z7fBFSGSstnZnl-2"><g transform="translate(0.5,0.5)"><path d="M 134.9 288.67 L 125.95 286.33 L 113.63 281.24 L 105.25 275.19 L 98.61 267.76 L 92.67 257.28 L 90.23 247.91 L 88.9 237.47 L 87.75 227.31 L 87.35 216.74 L 87.13 207.54 L 87.79 196.62 L 89.43 186.63 L 92.49 176.64 L 98.07 166.74 L 104.14 158.12 L 109.95 149.23 L 109.64 139.99 L 108.09 128.1 L 104.99 115.1 L 101.57 104.58 L 97.85 92.73 L 94.75 80.84 L 92.31 69.92 L 89.88 58.6 L 87.31 46.97 L 84.82 36.4 L 82.3 26.37 L 95.68 28.93 L 102.02 20.62 L 111.41 25.04 L 107.29 33.97 L 111.32 24.82 L 115.58 15.67 L 118.95 6.92 L 129.62 0.37 L 138.75 3.29 L 143.05 11.56 L 146.46 22.43 L 149.74 31.98 L 141.9 26.68 L 150.54 23.85 L 159.31 20.93 L 172.17 24.87 L 177.39 32.91 L 177.44 43.35 L 177.39 52.45 L 177.31 62.44 L 177.26 72.04 L 177.26 81.32 L 177.08 90.56 L 176.6 99.63 L 179.74 109.31 L 184.48 117.49 L 194.32 113.33 L 206.51 111.43 L 217.85 110.9 L 229.33 110.86 L 239.34 110.99 L 248.38 112.62 L 257.73 117.13 L 266.55 124.16 L 273.11 131.9 L 274.31 136.72 L 274.22 139.68 L 273.42 142.55 L 271.96 145.12 L 269.88 147.28 L 267.39 148.92 L 264.6 149.89 L 261.63 150.16 L 258.66 149.72 L 255.92 148.57 L 253.52 146.8 L 251.62 144.5 L 250.33 141.85 L 249.71 138.93 L 257.73 126.73 L 260.04 117.09 L 267.62 107.19 L 276.83 97.06 L 287.2 86.41 L 298.32 74.34 L 308.56 61.56 L 316.14 51.3 L 321.77 43.7 L 328.46 35.96 L 329.57 35.03 L 331.6 33.35 L 334 32.25 L 336.57 31.72 L 339.18 31.81 L 341.71 32.56 L 344.01 33.84 L 345.92 35.7 L 347.33 37.91 L 348.18 40.43 L 348.35 43.04 L 347.95 45.64 L 346.94 48.08 L 345.34 50.15 L 342.06 58.86 L 337.01 69.16 L 332.98 78.4 L 329.17 87.91 L 322.56 77.26 L 332.58 71.15 L 341.22 67.66 L 350.75 64.26 L 365.24 71.55 L 365.02 83.18 L 356.86 92.64 L 349.59 100.42 L 343.26 107.45 L 335.86 116.07 L 329.25 123.72 L 323.98 133.23 L 319.33 142.24 L 313.61 151.13 L 307.98 143.62 L 316.98 149.01 L 325.18 155.55 L 333.6 164.75 L 339.23 173.9 L 343.21 183.14 L 346.45 191.98 L 348.13 202.28 L 348.31 211.48 L 340.42 202.06 L 353.41 204.98 L 366.61 209.13 L 377.69 212.54 L 386.73 216.16 L 396.08 223.33 L 401.97 230.31 L 404.99 243.31 L 398.16 251.13 L 386.95 255.16 L 374.99 257.55 L 364.57 259.31 L 354.47 260.82 L 347.42 261.97 L 344.5 261.88 L 341.71 261.13 L 339.18 259.67 L 337.05 257.72 L 335.5 255.29 L 334.53 252.55 L 334.26 249.63 L 334.71 246.76 L 335.81 244.11 L 337.54 241.76 L 339.76 239.91 L 342.33 238.62 L 345.16 238 L 356.29 241.54 L 366.34 248.79 L 380.66 260.82 L 388.28 267.58 L 395.28 273.95 L 405.83 284.16 L 413.27 292.65 L 419.3 299.85 L 427.81 310.69 L 434.76 320.5 L 440.61 328.41 L 441.9 330.67 L 442.65 333.19 L 442.74 335.8 L 442.21 338.36 L 441.1 340.71 L 439.46 342.74 L 437.38 344.33 L 434.94 345.35 L 432.37 345.79 L 429.76 345.57 L 427.28 344.73 L 425.06 343.36 L 423.29 341.46 L 414.07 335.97 L 402.19 326.82 L 389.25 315.64 L 382.21 308.96 L 375.34 302.55 L 364.48 292.91 L 356.2 286.99 L 347.33 282.79 L 337.67 278.15 L 327.62 273.64 L 318.53 277.04 L 309.09 280.36 L 297.39 283.98 L 287.29 286.81 L 277.41 287.96 L 284.14 275.94 L 288.8 287.34 L 291.9 297.73 L 295.84 309.63 L 300.63 321.96 L 305.68 335.67 L 310.73 353.61 L 313.39 364.58 L 316.01 376.52 L 318.44 388.19 L 320.53 398.44 L 323.23 412.72 L 324.42 420.06 L 324.38 422.36 L 323.8 424.62 L 322.7 426.61 L 321.15 428.33 L 319.24 429.61 L 317.07 430.36 L 314.76 430.63 L 312.5 430.28 L 310.33 429.44 L 308.47 428.11 L 306.97 426.34 L 305.95 424.31 L 305.41 422.05 L 300.14 410.87 L 294.96 401.01 L 302.49 394.46 L 305.77 405.43 L 304.66 417.45 L 299.08 427.89 L 292.56 435.09 L 285.96 442.48 L 267.93 440.97 L 264.38 429.97 L 264.38 418.6 L 264.38 406.89 L 262.87 397.47 L 258.75 386.55 L 255.92 377.89 L 251.75 368.47 L 247.76 359.85 L 243.07 351.09 L 237.62 342.83 L 230.75 331.82 L 223.61 321.78 L 216.57 315.15 L 205.8 314.09 L 196.54 312.15 L 186.7 309.98 L 176.69 307.02 L 181.87 299.55 L 178.59 309.76 L 173.27 321.65 L 166.32 334.6 L 158.83 347.2 L 151.16 359.89 L 142.7 373.07 L 133.61 385.4 L 123.82 396.68 L 114.2 406 L 105.34 413.03 L 97.72 417.94 L 89.34 421.88 L 80.39 423.82 L 69.8 416.3 L 70.56 405.56 L 73.61 393.8 L 76.18 382.22 L 66.17 379.83 L 55.67 379.88 L 44.23 378.64 L 33.73 376.12 L 24.51 373.29 L 15.65 368.07 L 9.05 361.4 L 3.07 352.46 L -0.26 343.98 L -0.39 333.99 L 5.64 326.6 L 16.58 325.67 L 23.89 331.42 L 33.64 331.69 L 43.08 330.45 L 52.92 328.19 L 62.89 325.5 L 71.97 323.24 L 82.34 320.06 L 90.94 315.51 L 100.51 308.74 L 108.89 302.64 L 116.07 296.72 L 122.09 289.2 L 121.43 283.01 L 121.83 278.94 L 123.51 275.23 L 126.3 272.22 L 129.89 270.28 L 133.92 269.57 L 137.96 270.23 L 141.59 272.09 L 144.43 275.05 L 146.15 278.72 L 146.64 282.79 L 145.8 286.81 L 143.72 290.31 L 140.61 293 L 136.85 294.55 L 132.77 294.77 L 128.83 293.71 L 125.42 291.45 L 122.89 288.23 L 121.56 284.38 L 121.52 280.27 L 122.8 276.38 L 125.24 273.11 L 128.61 270.81 L 132.55 269.66 L 136.63 269.88 L 140.44 271.34 L 143.58 273.95 L 145.71 277.44 L 146.64 281.42 L 146.64 281.42 L 147.39 290.84 L 143.94 301.58 L 138.04 310.47 L 130.07 317.49 L 121.87 324.3 L 113.49 330.01 L 105.21 336.02 L 95.77 341.41 L 84.43 345.57 L 74.85 348.09 L 64.57 350.87 L 55.62 352.95 L 46.72 354.9 L 36.26 356.13 L 25.98 356 L 15.47 354.06 L 5.86 347.2 L 17.51 347.6 L 24.91 342.39 L 30.94 349.72 L 39.36 353 L 50.88 355.69 L 61.34 356.13 L 70.64 355.6 L 81.37 356.36 L 90.54 359.49 L 98.16 367.89 L 99.14 378.2 L 97.5 390.53 L 95.24 399.68 L 90.36 408.74 L 83.36 401.23 L 92.93 396.19 L 100.25 390.66 L 108.4 382.84 L 116.86 372.93 L 124.84 361.57 L 132.33 349.06 L 139.51 336.06 L 146.07 323.82 L 151.6 312.32 L 155.81 301.53 L 158.87 291.9 L 164.9 283.41 L 176.82 281.73 L 185.81 284.51 L 194.85 287.03 L 203.98 289.07 L 213.55 291.06 L 223.75 293.4 L 232.34 297.64 L 238.86 303.83 L 244.93 311.08 L 250.78 319.31 L 257.33 329.56 L 263.72 339.16 L 269.34 349.55 L 273.55 358.57 L 277.36 367.05 L 280.87 377.53 L 284.32 387.52 L 286.98 396.23 L 287.6 406.89 L 287.6 418.6 L 284.54 430.5 L 273.29 422.58 L 280.11 415.6 L 284.01 406.27 L 283.35 396.72 L 283.75 386.11 L 295.8 379.61 L 304.66 382.62 L 312.19 390.31 L 316.49 398.53 L 320.39 408.7 L 324.42 420.06 L 324.38 422.36 L 323.8 424.62 L 322.7 426.61 L 321.15 428.33 L 319.24 429.61 L 317.07 430.36 L 314.76 430.63 L 312.5 430.28 L 310.33 429.44 L 308.47 428.11 L 306.97 426.34 L 305.95 424.31 L 305.41 422.05 L 304.93 415.64 L 302.76 402.25 L 300.5 392.48 L 297.53 381.33 L 294.11 370.06 L 290.66 359.58 L 285.12 343.36 L 279.93 330.71 L 274.22 317.63 L 269.43 305.07 L 265.8 294.46 L 261.54 282.97 L 262.52 273.06 L 270.19 264.97 L 281.31 263.87 L 291.06 261.26 L 301.56 258.08 L 311.57 254.94 L 320.35 251.71 L 331.56 251.09 L 341.49 255.56 L 350.53 260.15 L 359.17 265.64 L 369.36 271.29 L 377.29 277.88 L 388.55 287.79 L 395.72 293.97 L 409.37 305.47 L 420.94 314.27 L 431.71 321.92 L 440.61 328.41 L 441.9 330.67 L 442.65 333.19 L 442.74 335.8 L 442.21 338.36 L 441.1 340.71 L 439.46 342.74 L 437.38 344.33 L 434.94 345.35 L 432.37 345.79 L 429.76 345.57 L 427.28 344.73 L 425.06 343.36 L 423.29 341.46 L 419.52 335.97 L 414.42 328.5 L 406.85 318.51 L 400.24 310.73 L 393.64 301.58 L 387.39 294.86 L 374.81 284.12 L 366.97 278.24 L 359.12 272.58 L 347.42 261.97 L 344.5 261.88 L 341.71 261.13 L 339.18 259.67 L 337.05 257.72 L 335.5 255.29 L 334.53 252.55 L 334.26 249.63 L 334.71 246.76 L 335.81 244.11 L 337.54 241.76 L 339.76 239.91 L 342.33 238.62 L 345.16 238 L 350.57 237.21 L 360.45 235.93 L 371.35 234.03 L 382.65 235.35 L 386.2 247.77 L 379.28 239.51 L 371.09 234.69 L 360.1 231.68 L 347.47 228.5 L 337.19 226.29 L 327.57 221.29 L 323.72 210.2 L 323.67 200.82 L 320.66 191.98 L 316.98 183.45 L 311.35 175.84 L 303.77 169.39 L 294.47 163.69 L 288.8 156.66 L 288.35 147.46 L 293.89 137.69 L 299.48 129.38 L 303.73 121.2 L 309.85 111.56 L 316.67 103.34 L 323.41 95.78 L 329.39 88.84 L 336.34 81.06 L 347.38 78.76 L 354.56 86.76 L 345.87 89.81 L 335.41 94.1 L 325.53 97.59 L 315.03 97.81 L 307.28 84.51 L 311.18 73.76 L 314.94 65.1 L 319.86 54.22 L 324.73 44.45 L 329.57 35.03 L 331.6 33.35 L 334 32.25 L 336.57 31.72 L 339.18 31.81 L 341.71 32.56 L 344.01 33.84 L 345.92 35.7 L 347.33 37.91 L 348.18 40.43 L 348.35 43.04 L 347.95 45.64 L 346.94 48.08 L 345.34 50.15 L 342.46 52.85 L 335.41 60.32 L 329.48 68.15 L 320.3 80.88 L 314.85 88.13 L 303.64 101.79 L 294.11 112.67 L 286.58 121.73 L 278.65 133.49 L 273.77 142.55 L 266.55 148.83 L 274.31 136.72 L 274.22 139.68 L 273.42 142.55 L 271.96 145.12 L 269.88 147.28 L 267.39 148.92 L 264.6 149.89 L 261.63 150.16 L 258.66 149.72 L 255.92 148.57 L 253.52 146.8 L 251.62 144.5 L 250.33 141.85 L 249.71 138.93 L 247.72 139.9 L 239.74 135.48 L 229.37 135.13 L 218.25 135.17 L 206.42 136.01 L 196.18 138.18 L 184.84 140.87 L 174.12 140.52 L 166.23 134.91 L 160.16 125.58 L 155.99 116.74 L 153.16 107.98 L 151.6 99.1 L 152.45 89.24 L 152.76 79.38 L 152.76 69.08 L 152.67 59 L 152.62 49.31 L 157.28 39.63 L 165.96 45.03 L 156.52 47.9 L 147 50.24 L 136.85 50.77 L 129.27 45.56 L 125.1 36.01 L 122.22 26.99 L 119.83 17.48 L 131.04 23.72 L 140.35 18.54 L 136.85 27.47 L 131.44 38.17 L 127.54 46.53 L 119.57 52.14 L 108.71 51.61 L 99.98 47.06 L 93.82 40.16 L 86.33 33 L 80.88 24.69 L 81.5 14.08 L 94.79 9.83 L 102.9 17.75 L 105.12 27.08 L 107.34 36.49 L 109.95 47.86 L 112.7 59.53 L 115.27 70.31 L 117.75 80.48 L 121.21 91.45 L 125.28 102.72 L 129 113.91 L 131.44 124.38 L 132.9 133.54 L 133.92 145.07 L 133.35 156.22 L 128.12 164.26 L 122.14 172.84 L 115.89 181.11 L 111.72 189.28 L 109.64 199.14 L 108.8 210.64 L 108.66 219.79 L 108.98 231.15 L 109.42 240.7 L 110.39 250.16 L 114.96 259.4 L 121.87 266.39 L 130.25 270.76 L 139.11 273.33 L 140.88 274.08 L 142.43 275.19 L 143.63 276.64 L 144.47 278.37 L 144.91 280.27 L 144.87 282.17 L 144.34 284.03 L 143.41 285.66 L 142.12 287.08 L 140.48 288.14 L 138.71 288.76 L 136.8 288.93 L 134.9 288.67 L 134.9 288.67" fill="transparent" stroke="transparent" stroke-miterlimit="10" pointer-events="all" style="fill: light-dark(transparent, rgb(0, 0, 0)); stroke: light-dark(transparent, rgb(0, 0, 0));"/></g></g></g></g></g></svg>