<?xml version="1.0" encoding="UTF-8"?>
<!DOCTYPE svg PUBLIC "-//W3C//DTD SVG 1.1//EN" "http://www.w3.org/Graphics/SVG/1.1/DTD/svg11.dtd">
<svg xmlns="http://www.w3.org/2000/svg" style="background: transparent; background-color: transparent; color-scheme: light dark;" xmlns:xlink="http://www.w3.org/1999/xlink" version="1.1" width="503px" height="463px" viewBox="0 0 503 463"><defs/><g><g data-cell-id="0"><g data-cell-id="1"><g data-cell-id="aiV2axN4t2WMEZXIDMyl-2"><g transform="translate(0.5,0.5)"><path d="M 123.77 237.03 L 121.36 228.86 L 117.45 217.45 L 114.9 208.16 L 113.34 196.52 L 113.44 185.02 L 117.05 176.06 L 123.52 167.88 L 130.68 159.98 L 137.2 154.26 L 144.86 148.67 L 153.28 146.45 L 147.72 153.66 L 149.32 162.52 L 145.31 153.61 L 142.11 143.12 L 139.2 134.81 L 134.64 123.31 L 129.53 111.48 L 125.42 100.4 L 120.66 85.85 L 117.9 77.12 L 115.1 68.34 L 112.24 59.47 L 107.23 45.2 L 103.62 35.13 L 100.26 24.55 L 97.96 14.66 L 107.23 0.62 L 115.75 3.81 L 122.46 9.12 L 131.88 15.87 L 140.75 21.78 L 150.03 20.67 L 157.14 13.69 L 163.11 6.63 L 171.83 0.58 L 180.75 0.3 L 189.77 5.06 L 200.89 12.4 L 208.46 16.42 L 216.38 19.88 L 225.95 19.84 L 234.67 15.91 L 241.89 13.69 L 244.64 13.74 L 247.3 14.43 L 249.7 15.77 L 251.71 17.62 L 253.26 19.88 L 254.16 22.47 L 254.47 25.2 L 254.06 27.92 L 253.06 30.46 L 251.46 32.73 L 249.4 34.48 L 246.95 35.73 L 244.24 36.33 L 254.26 27.23 L 250.05 35.4 L 242.04 43.9 L 233.87 50.09 L 225.65 55.68 L 216.98 61.78 L 209.76 67.42 L 203.9 74.21 L 202.4 83.17 L 204.05 93.01 L 205.9 101.32 L 207.56 111.21 L 208.66 120.63 L 210.76 128.9 L 218.13 123.72 L 227.3 122.11 L 237.38 121.04 L 246.75 120.86 L 257.97 121.18 L 267.44 122.89 L 278.37 125.71 L 286.29 128.85 L 293.6 134.58 L 299.82 140.4 L 303.83 146.73 L 304.38 149.41 L 304.33 152.18 L 303.58 154.86 L 302.22 157.26 L 300.37 159.29 L 298.01 160.82 L 295.41 161.74 L 292.65 161.97 L 289.9 161.55 L 287.34 160.54 L 285.14 158.88 L 283.33 156.75 L 282.13 154.26 L 281.68 143.03 L 283.48 131.3 L 288.14 118.13 L 294.91 106.17 L 302.12 95.36 L 309.14 84.69 L 315.61 73.93 L 320.72 64.55 L 325.53 53.88 L 328.84 44.6 L 330.84 36.05 L 344.92 25.24 L 353.19 28.75 L 361.71 35.36 L 369.53 39.84 L 380.5 44.5 L 390.73 48.85 L 399.6 52.54 L 409.22 54.76 L 418.59 57.62 L 427.51 59.98 L 436.28 60.62 L 437.89 61.46 L 440.39 60.35 L 443.15 59.84 L 445.9 60.02 L 448.51 60.86 L 450.92 62.29 L 452.87 64.27 L 454.27 66.63 L 455.07 69.31 L 455.23 72.08 L 454.72 74.81 L 453.57 77.3 L 451.87 79.47 L 449.66 81.18 L 454.67 73.97 L 449.06 81.87 L 438.79 87.28 L 427.21 92.5 L 415.73 96.42 L 403.31 98.96 L 392.18 101.09 L 381.76 104.28 L 372.89 107.79 L 364.97 112.82 L 358.5 118.46 L 350.74 125.43 L 345.12 132.41 L 340.26 139.52 L 334.85 147.05 L 329.89 154.21 L 339.81 158.55 L 344.72 166.31 L 349.28 175.5 L 352.54 183.96 L 355.45 192.73 L 357.7 201.69 L 358.35 212.37 L 356.45 221.74 L 354.39 230.8 L 350.79 239.02 L 344.97 245.99 L 347.98 234.4 L 340.11 226.18 L 350.38 227.01 L 361.41 228.44 L 373.99 229.69 L 386.12 230.2 L 395.59 230.15 L 404.86 229.18 L 418.29 228.35 L 429.82 228.9 L 441.84 230.52 L 453.82 233.15 L 464.95 236.48 L 473.92 239.39 L 484.29 242.9 L 492.56 247.1 L 499.33 253.89 L 501.63 262.21 L 498.62 273.38 L 488.9 279.94 L 480.38 281.51 L 470.01 282.35 L 457.93 283.04 L 448.66 283.96 L 455.43 277.96 L 462.49 284.79 L 466.05 294.12 L 469.81 303.5 L 468.56 315.74 L 458.68 321.33 L 449.11 320.92 L 440.49 319.35 L 445.9 309.51 L 447.91 319.21 L 449.31 329.37 L 449.51 337.91 L 447.31 348.17 L 434.33 355.93 L 425.51 351.17 L 418.49 343.09 L 410.27 334.4 L 402.4 327.52 L 394.39 320.5 L 387.87 315 L 379.35 307.98 L 371.88 302.62 L 364.12 297.54 L 355.05 293.15 L 346.48 289.69 L 336.85 293.99 L 327.93 297.45 L 319.01 299.71 L 307.64 301.65 L 296.36 302.44 L 299.47 293.25 L 301.27 305.21 L 302.78 315.79 L 304.23 327.52 L 305.58 339.12 L 307.24 348.86 L 309.39 357.78 L 310.89 367.71 L 312 379.26 L 314.3 391.31 L 316.86 404.02 L 317.56 414.41 L 317.66 423.18 L 317.61 432.33 L 315.45 441.34 L 311.14 448.04 L 309.39 449.98 L 307.19 451.45 L 304.68 452.38 L 302.02 452.66 L 299.37 452.29 L 296.91 451.32 L 294.76 449.79 L 293 447.76 L 291.8 445.4 L 291.2 442.82 L 291.25 440.14 L 291.95 437.55 L 293.2 435.24 L 292.15 446.19 L 287.64 437.23 L 282.58 429.05 L 290.75 423.09 L 288.24 432.65 L 278.92 440.23 L 268.75 445.36 L 260.23 449.51 L 252.76 453.76 L 244.24 457.97 L 235.32 461.52 L 230.16 462.22 L 227.45 462.08 L 224.8 461.29 L 222.44 459.86 L 220.49 457.97 L 219.03 455.61 L 218.18 452.98 L 218.03 450.25 L 218.48 447.53 L 219.59 445.03 L 221.29 442.86 L 223.44 441.15 L 225.9 440 L 228.61 439.49 L 234.37 431.27 L 239.08 424.06 L 248.65 432.24 L 238.88 430.58 L 228.61 428.08 L 218.03 425.17 L 210.06 419.4 L 212.02 404.52 L 220.19 399.72 L 228.51 397.04 L 239.48 393.9 L 248.25 390.76 L 248.3 381.29 L 251.06 372.05 L 252.06 362.63 L 252.46 353.53 L 251.86 344.1 L 250 334.68 L 247.35 325.44 L 258.02 322.99 L 247.95 324.98 L 236.62 328.63 L 226.9 332.19 L 216.18 334.31 L 206 332.93 L 197.33 328.49 L 188.16 324.01 L 179.39 320.18 L 186.51 314.5 L 183.1 323.6 L 176.19 331.96 L 168.82 340.41 L 161.15 349.19 L 153.18 357.78 L 145.37 365.21 L 137.1 371.54 L 129.23 376.72 L 121.21 381.52 L 112.79 385.86 L 105.07 389.46 L 93.35 393.62 L 83.37 396.12 L 74.15 398.19 L 64.68 399.86 L 55.66 401.01 L 46.44 400.69 L 37.32 399.58 L 28.25 387.89 L 33.86 377.5 L 42.43 373.34 L 48.89 367.38 L 54.56 360.96 L 56.46 369.97 L 45.49 370.66 L 34.66 366.18 L 25.49 362.21 L 18.02 357.45 L 14.21 338.47 L 21.28 333.43 L 33.91 330.94 L 43.48 329.37 L 52.1 327.98 L 60.92 325.63 L 58.57 337.13 L 65.03 342.9 L 56.51 340.36 L 46.94 335.84 L 35.46 330.99 L 25.69 325.77 L 18.12 319.71 L 11.96 310.52 L 7.55 301.65 L 4.04 293.34 L 2.04 284.93 L 0.73 275.56 L 0.58 266.87 L 0.48 260.04 L 0.83 257.26 L 1.79 254.68 L 3.39 252.37 L 5.44 250.52 L 7.9 249.27 L 10.61 248.58 L 13.41 248.58 L 16.07 249.27 L 18.52 250.52 L 20.63 252.37 L 22.18 254.68 L 23.19 257.26 L 23.54 260.04 L 31.75 264.15 L 40.68 267.75 L 48.64 271.49 L 57.06 274.82 L 65.83 277.4 L 73.8 280.45 L 82.52 283.27 L 91.44 285.63 L 100.61 286.13 L 109.93 284.61 L 118.35 280.04 L 126.12 275.74 L 133.99 269.13 L 139.2 262.21 L 138.6 262.71 L 140.65 260.64 L 143.11 259.11 L 145.87 258.23 L 148.77 258.05 L 151.63 258.56 L 154.29 259.71 L 156.54 261.47 L 158.34 263.73 L 159.6 266.36 L 160.1 269.23 L 159.95 272.09 L 159.15 274.91 L 157.64 277.36 L 150.18 281.51 L 137.95 278.19 L 133.34 270.66 L 130.68 262.02 L 128.13 253.52 L 126.77 244.84 L 126.07 235.74 L 126.02 229.36 L 126.62 225.58 L 128.48 222.16 L 131.28 219.48 L 134.79 217.82 L 138.65 217.4 L 142.41 218.23 L 145.77 220.22 L 148.27 223.17 L 149.67 226.78 L 149.93 230.66 L 148.87 234.4 L 146.72 237.59 L 143.61 239.94 L 139.95 241.19 L 136.09 241.19 L 132.39 239.94 L 129.33 237.63 L 127.12 234.4 L 126.12 230.66 L 126.32 226.82 L 127.72 223.22 L 130.23 220.26 L 133.54 218.23 L 137.35 217.4 L 141.21 217.82 L 144.71 219.43 L 147.52 222.11 L 149.32 225.53 L 149.98 229.36 L 149.98 229.36 L 150.58 241.88 L 152.18 250.24 L 151.13 258.97 L 138.6 262.71 L 140.65 260.64 L 143.11 259.11 L 145.87 258.23 L 148.77 258.05 L 151.63 258.56 L 154.29 259.71 L 156.54 261.47 L 158.34 263.73 L 159.6 266.36 L 160.1 269.23 L 159.95 272.09 L 159.15 274.86 L 157.64 277.36 L 154.74 281.51 L 148.67 288.72 L 141.81 294.22 L 133.89 298.65 L 124.92 303.69 L 116.35 307.98 L 106.53 309.88 L 97.1 309.83 L 88.13 309.14 L 79.56 307.1 L 69.54 303.92 L 60.32 300.41 L 51.65 297.64 L 42.08 294.26 L 34.31 290.2 L 25.64 287.01 L 17.22 282.53 L 10.11 277.36 L 3.99 270.01 L 0.48 260.04 L 0.83 257.26 L 1.79 254.68 L 3.39 252.37 L 5.44 250.52 L 7.9 249.27 L 10.61 248.58 L 13.36 248.58 L 16.07 249.27 L 18.52 250.52 L 20.63 252.37 L 22.18 254.68 L 23.19 257.26 L 23.54 260.04 L 23.44 265.35 L 23.44 274.12 L 24.69 282.85 L 27.9 292 L 32.76 301.75 L 39.07 307.8 L 47.59 311.72 L 56.11 315.1 L 67.89 320.69 L 76.56 324.61 L 80.02 335.28 L 74.55 343.69 L 64.48 347.98 L 56.01 350.16 L 47.34 351.77 L 38.77 353.44 L 28.4 352 L 29.85 337.45 L 38.57 342.81 L 46.69 346.04 L 55.71 349.32 L 64.83 350.34 L 73.25 354.31 L 76.66 362.9 L 74.9 371.91 L 68.34 380.32 L 62.37 386.37 L 54.11 393.11 L 45.59 396.86 L 49.8 387.85 L 46.84 377.78 L 56.46 378.93 L 65.43 377.73 L 75.15 375.98 L 84.58 373.76 L 93.2 371.36 L 103.37 366.83 L 114.19 361.01 L 124.67 354.17 L 134.09 346.51 L 140.9 339.16 L 148.02 330.62 L 155.19 321.61 L 161.55 313.66 L 165.66 306.09 L 172.83 296.99 L 187.76 298.65 L 196.38 302.21 L 205.5 306.78 L 213.47 311.22 L 221.94 309.69 L 232.06 305.67 L 240.43 302.9 L 249.35 301.38 L 260.83 302.62 L 267.09 311.31 L 269.75 319.99 L 272.31 329.18 L 274.21 338.01 L 275.36 347.85 L 275.46 359.12 L 274.51 370.06 L 272.46 380.87 L 270.1 389.1 L 268.25 397.5 L 264.19 406.37 L 255.77 412.61 L 246.45 415.89 L 235.32 419.4 L 224.55 419.86 L 224 402.44 L 232.92 405.17 L 242.49 407.62 L 251.36 409.51 L 259.68 413.81 L 262.88 425.54 L 259.58 434.27 L 254.26 442.63 L 247.15 451.36 L 239.23 457.87 L 230.16 462.22 L 227.45 462.08 L 224.8 461.29 L 222.44 459.86 L 220.49 457.97 L 219.03 455.61 L 218.18 452.98 L 218.03 450.25 L 218.48 447.53 L 219.59 445.03 L 221.29 442.86 L 223.44 441.15 L 225.9 440 L 228.61 439.49 L 230.91 439.17 L 239.38 435.24 L 246.9 431.04 L 255.77 426.46 L 264.64 422.08 L 271.96 414.18 L 276.27 406 L 289.24 404.29 L 296.91 410.34 L 301.62 417.64 L 306.94 426.37 L 312 436.63 L 311.14 448.04 L 309.39 449.98 L 307.19 451.45 L 304.68 452.38 L 302.02 452.66 L 299.37 452.29 L 296.91 451.32 L 294.76 449.79 L 293 447.76 L 291.8 445.4 L 291.2 442.82 L 291.25 440.14 L 291.95 437.55 L 293.2 435.24 L 296.26 429.47 L 296.26 419.4 L 295.66 407.34 L 293.3 396.07 L 291.35 386.79 L 289.95 377.22 L 289.19 365.91 L 287.19 357.08 L 285.29 347.71 L 283.43 336.21 L 281.73 324.93 L 279.72 313.99 L 278.02 304.38 L 276.62 292.74 L 281.63 283.64 L 292 279.99 L 301.22 279.39 L 310.69 278 L 320.67 275.51 L 329.44 271.86 L 337.05 267.43 L 348.43 266.92 L 356.7 269.41 L 365.42 273.15 L 374.54 277.82 L 382.81 283.32 L 390.58 289.04 L 398.8 295.74 L 408.67 303.78 L 416.54 310.25 L 425.76 317.68 L 433.58 325.03 L 437.08 333.57 L 426.51 337.96 L 426.36 329.32 L 424.66 320.59 L 423 312.23 L 425.71 300.59 L 433.48 295.97 L 443.6 296.48 L 450.26 303.13 L 448.61 312.37 L 444.75 303.69 L 442.55 295.14 L 437.03 286.41 L 433.88 275.37 L 436.88 266.55 L 447.21 261.88 L 456.58 261.1 L 468.46 260.31 L 477.03 262.53 L 467.4 259.07 L 458.63 256.16 L 449.01 253.38 L 438.84 251.3 L 428.56 250.1 L 418.89 249.83 L 407.77 250.47 L 396.19 251.54 L 385.87 251.72 L 372.79 251.77 L 359.36 251.26 L 348.33 250.43 L 336.35 249.64 L 326.48 240.68 L 331.39 225.53 L 334.25 214.86 L 335 205.76 L 332.69 196.94 L 328.94 186.96 L 325.03 178.55 L 319.36 169.91 L 312.4 161.6 L 309.39 151.16 L 310.54 142.62 L 316.06 133.93 L 321.87 126.03 L 327.13 118.64 L 332.54 111.85 L 339.41 105.06 L 347.78 97.81 L 356.05 91.67 L 363.97 87.23 L 371.98 84 L 380.45 81.18 L 391.13 78.5 L 403.06 76.15 L 412.08 73.97 L 421.5 70.19 L 432.82 68.89 L 437.89 61.46 L 440.39 60.35 L 443.15 59.84 L 445.9 60.02 L 448.51 60.86 L 450.92 62.29 L 452.87 64.27 L 454.27 66.63 L 455.07 69.31 L 455.23 72.08 L 454.72 74.81 L 453.57 77.3 L 451.87 79.47 L 449.66 81.18 L 447.01 82.43 L 437.48 83.4 L 428.11 83.03 L 419.39 81.97 L 408.62 77.58 L 399 74.85 L 390.88 72.13 L 382.71 68.62 L 372.29 64.55 L 363.06 60.86 L 354.64 56.47 L 346.13 50.69 L 340.61 42.7 L 350.49 43.67 L 347.23 54.9 L 342.77 65.52 L 338.76 73.84 L 333.25 84.14 L 326.68 95.59 L 319.76 106.91 L 313.4 117.16 L 308.54 126.45 L 305.63 135.13 L 303.83 146.73 L 304.38 149.41 L 304.33 152.18 L 303.58 154.86 L 302.22 157.26 L 300.37 159.29 L 298.01 160.82 L 295.41 161.74 L 292.65 161.97 L 289.9 161.55 L 287.34 160.54 L 285.14 158.88 L 283.33 156.75 L 282.13 154.26 L 281.68 154.35 L 273.86 147.88 L 265.09 145.39 L 256.52 143.49 L 247.15 143.26 L 235.47 143.96 L 227.05 145.48 L 217.38 147.51 L 204.45 148.81 L 195.68 146.68 L 188.26 135.96 L 185.81 126.54 L 184.96 116.15 L 183.7 107.65 L 181.45 97.99 L 179.59 89.22 L 179.79 80.12 L 181.5 70.6 L 185.26 61.18 L 191.52 53.88 L 198.24 48.2 L 206.4 41.96 L 216.68 34.76 L 223.79 29.49 L 231.81 23.35 L 241.89 13.69 L 244.64 13.74 L 247.3 14.43 L 249.7 15.77 L 251.71 17.62 L 253.26 19.88 L 254.16 22.47 L 254.47 25.2 L 254.06 27.92 L 253.06 30.46 L 251.46 32.73 L 249.4 34.48 L 246.95 35.73 L 244.24 36.33 L 239.08 38.96 L 230.61 41.73 L 220.79 42.06 L 211.12 41.13 L 202.65 37.81 L 194.23 33.79 L 184.81 28.48 L 178.79 22.1 L 172.63 29.08 L 164.51 36.93 L 157.34 42.29 L 147.32 44.74 L 138.45 43.72 L 129.38 39.42 L 119.41 32.63 L 110.59 26.12 L 107.13 18.27 L 117.5 10.97 L 118.95 19.47 L 121.51 29.17 L 124.72 38.87 L 129.93 53.14 L 133.34 62.01 L 136.59 70.56 L 139.9 79.01 L 145.21 92.96 L 149.27 103.03 L 152.83 111.21 L 157.74 123.03 L 161.1 131.81 L 164.26 140.86 L 167.17 150.56 L 165.06 162.48 L 156.64 165.94 L 148.52 171.25 L 141.71 177.12 L 134.89 184.05 L 130.93 193.1 L 131.08 201.65 L 132.84 212.87 L 136.04 224.74 L 138.2 232.97 L 138.5 234.77 L 138.35 236.57 L 137.75 238.28 L 136.75 239.8 L 135.44 241.05 L 133.89 241.93 L 132.13 242.39 L 130.33 242.48 L 128.58 242.11 L 126.92 241.28 L 125.57 240.13 L 124.47 238.69 L 123.77 237.03 L 123.77 237.03" fill="transparent" stroke="transparent" stroke-miterlimit="10" pointer-events="all" style="fill: light-dark(transparent, rgb(0, 0, 0)); stroke: light-dark(transparent, rgb(0, 0, 0));"/></g></g></g></g></g></svg>